<svg width="157" height="35" viewBox="0 0 157 35" fill="none" xmlns="http://www.w3.org/2000/svg">
<path d="M157 35V30.3653H151.488C146.213 30.3653 141.557 28.7671 137.565 25.6107C133.526 22.4543 129.772 18.9783 126.208 15.1826C122.692 11.387 119.223 7.91096 115.802 4.75457C112.38 1.59817 108.674 1.04393e-06 104.683 1.04393e-06H52.0324C47.8033 1.04393e-06 43.9543 1.59817 40.533 4.75457C37.1592 7.91096 33.7379 11.387 30.2691 15.1826C26.8002 18.9783 23.0463 22.4543 19.1023 25.6107C15.1108 28.7671 10.359 30.3653 4.94189 30.3653H0V35H157Z" fill="#fff"/>
</svg>
